<svg xmlns="http://www.w3.org/2000/svg" xmlns:xlink="http://www.w3.org/1999/xlink" width="500" zoomAndPan="magnify" viewBox="0 0 375 374.999991" height="500" preserveAspectRatio="xMidYMid meet" version="1.0"><defs><clipPath id="aa91c7c0e1"><path d="M 120.136719 130 L 243 130 L 243 253.273438 L 120.136719 253.273438 Z M 120.136719 130 " clip-rule="nonzero"/></clipPath><clipPath id="ab590a0ff2"><path d="M 200 122.023438 L 254.855469 122.023438 L 254.855469 176 L 200 176 Z M 200 122.023438 " clip-rule="nonzero"/></clipPath><clipPath id="10a94563ce"><path d="M 120.136719 130 L 182 130 L 182 253.273438 L 120.136719 253.273438 Z M 120.136719 130 " clip-rule="nonzero"/></clipPath><clipPath id="5185b2e9c5"><path d="M 143.523438 160 L 210 160 L 210 226 L 143.523438 226 Z M 143.523438 160 " clip-rule="nonzero"/></clipPath><clipPath id="ed7455d174"><path d="M 184 156.402344 L 218.523438 156.402344 L 218.523438 191 L 184 191 Z M 184 156.402344 " clip-rule="nonzero"/></clipPath></defs><g clip-path="url(#aa91c7c0e1)"><path fill="#5aff7a" d="M 181.175781 130.59375 L 165.746094 130.59375 C 140.441406 130.59375 119.855469 151.179688 119.855469 176.484375 L 119.855469 253.238281 L 196.609375 253.238281 C 221.914062 253.238281 242.5 232.652344 242.5 207.347656 L 242.5 191.917969 L 216.917969 191.917969 L 216.917969 207.347656 C 216.917969 218.550781 207.8125 227.65625 196.609375 227.65625 L 145.4375 227.65625 L 145.4375 176.484375 C 145.4375 165.285156 154.546875 156.175781 165.746094 156.175781 L 181.175781 156.175781 Z M 181.175781 130.59375 " fill-opacity="1" fill-rule="nonzero"/></g><g clip-path="url(#ab590a0ff2)"><path fill="#00bf63" d="M 236.960938 139.929688 L 255.136719 139.929688 L 255.136719 157.824219 L 236.960938 157.824219 L 236.960938 175.996094 L 219.070312 175.996094 L 219.070312 157.824219 L 200.894531 157.824219 L 200.894531 139.929688 L 219.070312 139.929688 L 219.070312 121.757812 L 236.960938 121.757812 Z M 236.960938 139.929688 " fill-opacity="1" fill-rule="nonzero"/></g><g clip-path="url(#10a94563ce)"><path fill="#004aad" d="M 181.175781 130.59375 L 165.746094 130.59375 C 140.441406 130.59375 119.855469 151.179688 119.855469 176.484375 L 119.855469 253.238281 L 121.125 253.238281 L 145.964844 227.65625 L 145.4375 227.65625 L 145.4375 176.484375 C 145.4375 165.285156 154.546875 156.175781 165.746094 156.175781 L 181.175781 156.175781 Z M 181.175781 130.59375 " fill-opacity="1" fill-rule="nonzero"/></g><g clip-path="url(#5185b2e9c5)"><path fill="#14edb9" d="M 208 184.464844 C 208.460938 186.515625 208.703125 188.648438 208.703125 190.835938 C 208.703125 206.898438 195.679688 219.921875 179.617188 219.921875 C 163.550781 219.921875 150.53125 206.898438 150.53125 190.835938 C 150.53125 174.773438 163.550781 161.75 179.617188 161.75 C 185.175781 161.75 190.375 163.3125 194.792969 166.019531 C 189.539062 162.445312 183.191406 160.355469 176.359375 160.355469 C 158.238281 160.355469 143.550781 175.042969 143.550781 193.164062 C 143.550781 211.28125 158.238281 225.972656 176.359375 225.972656 C 194.476562 225.972656 209.167969 211.28125 209.167969 193.164062 C 209.167969 190.152344 208.761719 187.234375 208 184.464844 " fill-opacity="1" fill-rule="nonzero"/></g><path fill="#5aff7a" d="M 178.769531 191.945312 C 177.238281 195.628906 178.355469 199.023438 179.429688 201.074219 C 179.351562 198.703125 181.574219 194.097656 186.421875 190.257812 C 186.421875 190.257812 181.894531 194.925781 180.726562 199.414062 C 179.898438 202.609375 177.261719 205.039062 173.984375 205.460938 C 172.550781 205.644531 171.0625 205.59375 169.5625 205.28125 C 162.476562 203.785156 157.886719 196.789062 159.328125 189.691406 C 160.75 182.699219 167.449219 178.117188 174.441406 179.269531 C 174.28125 179.230469 174.121094 179.195312 173.957031 179.164062 C 166.226562 177.613281 158.699219 182.625 157.152344 190.355469 C 155.601562 198.089844 160.613281 205.613281 168.34375 207.160156 C 172.328125 207.960938 176.257812 207.015625 179.339844 204.855469 C 180.8125 203.828125 182.378906 202.949219 184 202.175781 C 186.535156 200.964844 189.679688 198.167969 190.09375 191.707031 C 190.5 185.359375 194.089844 183.234375 194.089844 183.234375 C 194.089844 183.234375 182.328125 183.398438 178.769531 191.945312 " fill-opacity="1" fill-rule="nonzero"/><path fill="#5aff7a" d="M 169.304688 192.800781 C 169.484375 200.730469 175.683594 201.242188 175.683594 201.242188 C 177.117188 197.625 171.980469 191.871094 171.980469 191.871094 C 175.34375 194.769531 176.804688 198.136719 176.679688 199.835938 C 177.507812 198.394531 178.410156 195.992188 177.421875 193.304688 C 175.121094 187.070312 166.6875 186.605469 166.6875 186.605469 C 166.6875 186.605469 169.199219 188.234375 169.304688 192.800781 " fill-opacity="1" fill-rule="nonzero"/><g clip-path="url(#ed7455d174)"><path fill="#14edb9" d="M 207.640625 166.539062 L 207.640625 157.136719 C 207.640625 156.730469 207.308594 156.402344 206.902344 156.402344 L 195.917969 156.402344 C 195.511719 156.402344 195.183594 156.730469 195.183594 157.136719 L 195.183594 166.539062 C 195.183594 166.945312 194.851562 167.273438 194.445312 167.273438 L 185.046875 167.273438 C 184.640625 167.273438 184.308594 167.601562 184.308594 168.007812 L 184.308594 178.996094 C 184.308594 179.402344 184.640625 179.730469 185.046875 179.730469 L 194.445312 179.730469 C 194.851562 179.730469 195.183594 180.058594 195.183594 180.46875 L 195.183594 189.867188 C 195.183594 190.273438 195.511719 190.601562 195.917969 190.601562 L 206.902344 190.601562 C 207.308594 190.601562 207.640625 190.273438 207.640625 189.867188 L 207.640625 180.46875 C 207.640625 180.058594 207.96875 179.730469 208.375 179.730469 L 217.777344 179.730469 C 218.183594 179.730469 218.511719 179.402344 218.511719 178.996094 L 218.511719 168.007812 C 218.511719 167.601562 218.183594 167.273438 217.777344 167.273438 L 208.375 167.273438 C 207.96875 167.273438 207.640625 166.945312 207.640625 166.539062 " fill-opacity="1" fill-rule="nonzero"/></g><path fill="#14edb9" d="M 192.125 207.007812 L 192.125 204.328125 C 192.125 204.214844 192.03125 204.121094 191.914062 204.121094 L 188.78125 204.121094 C 188.667969 204.121094 188.574219 204.214844 188.574219 204.328125 L 188.574219 207.007812 C 188.574219 207.125 188.480469 207.21875 188.363281 207.21875 L 185.683594 207.21875 C 185.566406 207.21875 185.472656 207.3125 185.472656 207.429688 L 185.472656 210.558594 C 185.472656 210.675781 185.566406 210.769531 185.683594 210.769531 L 188.363281 210.769531 C 188.480469 210.769531 188.574219 210.863281 188.574219 210.980469 L 188.574219 213.660156 C 188.574219 213.773438 188.667969 213.867188 188.78125 213.867188 L 191.914062 213.867188 C 192.03125 213.867188 192.125 213.773438 192.125 213.660156 L 192.125 210.980469 C 192.125 210.863281 192.21875 210.769531 192.332031 210.769531 L 195.011719 210.769531 C 195.128906 210.769531 195.222656 210.675781 195.222656 210.558594 L 195.222656 207.429688 C 195.222656 207.3125 195.128906 207.21875 195.011719 207.21875 L 192.332031 207.21875 C 192.21875 207.21875 192.125 207.125 192.125 207.007812 " fill-opacity="1" fill-rule="nonzero"/><path fill="#14edb9" d="M 172.378906 169.007812 L 172.378906 166.328125 C 172.378906 166.210938 172.285156 166.117188 172.171875 166.117188 L 169.039062 166.117188 C 168.921875 166.117188 168.828125 166.210938 168.828125 166.328125 L 168.828125 169.007812 C 168.828125 169.121094 168.734375 169.214844 168.621094 169.214844 L 165.9375 169.214844 C 165.824219 169.214844 165.730469 169.308594 165.730469 169.425781 L 165.730469 172.558594 C 165.730469 172.675781 165.824219 172.769531 165.9375 172.769531 L 168.621094 172.769531 C 168.734375 172.769531 168.828125 172.863281 168.828125 172.976562 L 168.828125 175.65625 C 168.828125 175.773438 168.921875 175.867188 169.039062 175.867188 L 172.171875 175.867188 C 172.285156 175.867188 172.378906 175.773438 172.378906 175.65625 L 172.378906 172.976562 C 172.378906 172.863281 172.472656 172.769531 172.589844 172.769531 L 175.269531 172.769531 C 175.386719 172.769531 175.480469 172.675781 175.480469 172.558594 L 175.480469 169.425781 C 175.480469 169.308594 175.386719 169.214844 175.269531 169.214844 L 172.589844 169.214844 C 172.472656 169.214844 172.378906 169.121094 172.378906 169.007812 " fill-opacity="1" fill-rule="nonzero"/></svg>