<svg xmlns="http://www.w3.org/2000/svg" xmlns:xlink="http://www.w3.org/1999/xlink" width="500" zoomAndPan="magnify" viewBox="0 0 375 374.999991" height="500" preserveAspectRatio="xMidYMid meet" version="1.0"><defs><g/><clipPath id="f5731f1712"><path d="M 33.769531 159 L 101 159 L 101 226.261719 L 33.769531 226.261719 Z M 33.769531 159 " clip-rule="nonzero"/></clipPath><clipPath id="e7db771db0"><path d="M 77 155.011719 L 107.035156 155.011719 L 107.035156 185 L 77 185 Z M 77 155.011719 " clip-rule="nonzero"/></clipPath><clipPath id="e9485eb895"><path d="M 33.769531 159 L 67 159 L 67 226.261719 L 33.769531 226.261719 Z M 33.769531 159 " clip-rule="nonzero"/></clipPath><clipPath id="5ae0ec64c3"><path d="M 46.585938 175 L 83 175 L 83 211.296875 L 46.585938 211.296875 Z M 46.585938 175 " clip-rule="nonzero"/></clipPath><clipPath id="21821883fa"><path d="M 68 173.796875 L 87.085938 173.796875 L 87.085938 193 L 68 193 Z M 68 173.796875 " clip-rule="nonzero"/></clipPath></defs><g fill="#ffffff" fill-opacity="1"><g transform="translate(107.035778, 201.137639)"><g><path d="M 13.203125 0.40625 C 10.785156 0.40625 8.707031 -0.109375 6.96875 -1.140625 C 5.226562 -2.179688 3.890625 -3.632812 2.953125 -5.5 C 2.015625 -7.363281 1.546875 -9.519531 1.546875 -11.96875 C 1.546875 -14.414062 2.015625 -16.578125 2.953125 -18.453125 C 3.890625 -20.335938 5.226562 -21.804688 6.96875 -22.859375 C 8.707031 -23.910156 10.785156 -24.4375 13.203125 -24.4375 C 16.085938 -24.4375 18.453125 -23.71875 20.296875 -22.28125 C 22.140625 -20.851562 23.289062 -18.847656 23.75 -16.265625 L 18.90625 -16.265625 C 18.601562 -17.566406 17.96875 -18.585938 17 -19.328125 C 16.03125 -20.078125 14.742188 -20.453125 13.140625 -20.453125 C 10.921875 -20.453125 9.179688 -19.695312 7.921875 -18.1875 C 6.660156 -16.675781 6.03125 -14.601562 6.03125 -11.96875 C 6.03125 -9.34375 6.660156 -7.28125 7.921875 -5.78125 C 9.179688 -4.28125 10.921875 -3.53125 13.140625 -3.53125 C 14.742188 -3.53125 16.03125 -3.878906 17 -4.578125 C 17.96875 -5.273438 18.601562 -6.242188 18.90625 -7.484375 L 23.75 -7.484375 C 23.289062 -5.015625 22.140625 -3.082031 20.296875 -1.6875 C 18.453125 -0.289062 16.085938 0.40625 13.203125 0.40625 Z M 13.203125 0.40625 "/></g></g></g><g fill="#ffffff" fill-opacity="1"><g transform="translate(129.06336, 201.137639)"><g><path d="M 10.390625 0.40625 C 8.742188 0.40625 7.265625 0.03125 5.953125 -0.71875 C 4.640625 -1.476562 3.597656 -2.523438 2.828125 -3.859375 C 2.066406 -5.203125 1.6875 -6.753906 1.6875 -8.515625 C 1.6875 -10.273438 2.070312 -11.820312 2.84375 -13.15625 C 3.625 -14.5 4.671875 -15.546875 5.984375 -16.296875 C 7.296875 -17.054688 8.78125 -17.4375 10.4375 -17.4375 C 12.050781 -17.4375 13.515625 -17.054688 14.828125 -16.296875 C 16.148438 -15.546875 17.191406 -14.5 17.953125 -13.15625 C 18.722656 -11.820312 19.109375 -10.273438 19.109375 -8.515625 C 19.109375 -6.753906 18.722656 -5.203125 17.953125 -3.859375 C 17.191406 -2.523438 16.144531 -1.476562 14.8125 -0.71875 C 13.488281 0.03125 12.015625 0.40625 10.390625 0.40625 Z M 10.390625 -3.390625 C 11.535156 -3.390625 12.53125 -3.816406 13.375 -4.671875 C 14.226562 -5.535156 14.65625 -6.816406 14.65625 -8.515625 C 14.65625 -10.203125 14.226562 -11.472656 13.375 -12.328125 C 12.53125 -13.191406 11.550781 -13.625 10.4375 -13.625 C 9.269531 -13.625 8.265625 -13.191406 7.421875 -12.328125 C 6.585938 -11.472656 6.171875 -10.203125 6.171875 -8.515625 C 6.171875 -6.816406 6.585938 -5.535156 7.421875 -4.671875 C 8.265625 -3.816406 9.253906 -3.390625 10.390625 -3.390625 Z M 10.390625 -3.390625 "/></g></g></g><g fill="#ffffff" fill-opacity="1"><g transform="translate(146.596012, 201.137639)"><g><path d="M 2.234375 0 L 2.234375 -17.015625 L 6.109375 -17.015625 L 6.484375 -14.71875 C 7.035156 -15.539062 7.757812 -16.195312 8.65625 -16.6875 C 9.5625 -17.1875 10.609375 -17.4375 11.796875 -17.4375 C 14.429688 -17.4375 16.296875 -16.414062 17.390625 -14.375 C 18.015625 -15.3125 18.84375 -16.054688 19.875 -16.609375 C 20.914062 -17.160156 22.054688 -17.4375 23.296875 -17.4375 C 25.515625 -17.4375 27.21875 -16.769531 28.40625 -15.4375 C 29.59375 -14.113281 30.1875 -12.171875 30.1875 -9.609375 L 30.1875 0 L 25.796875 0 L 25.796875 -9.203125 C 25.796875 -10.660156 25.515625 -11.773438 24.953125 -12.546875 C 24.398438 -13.328125 23.539062 -13.71875 22.375 -13.71875 C 21.1875 -13.71875 20.226562 -13.285156 19.5 -12.421875 C 18.78125 -11.554688 18.421875 -10.34375 18.421875 -8.78125 L 18.421875 0 L 14.03125 0 L 14.03125 -9.203125 C 14.03125 -10.660156 13.742188 -11.773438 13.171875 -12.546875 C 12.597656 -13.328125 11.71875 -13.71875 10.53125 -13.71875 C 9.363281 -13.71875 8.421875 -13.285156 7.703125 -12.421875 C 6.984375 -11.554688 6.625 -10.34375 6.625 -8.78125 L 6.625 0 Z M 2.234375 0 "/></g></g></g><g fill="#ffffff" fill-opacity="1"><g transform="translate(175.486079, 201.137639)"><g><path d="M 2.234375 0 L 2.234375 -17.015625 L 6.109375 -17.015625 L 6.484375 -14.71875 C 7.035156 -15.539062 7.757812 -16.195312 8.65625 -16.6875 C 9.5625 -17.1875 10.609375 -17.4375 11.796875 -17.4375 C 14.429688 -17.4375 16.296875 -16.414062 17.390625 -14.375 C 18.015625 -15.3125 18.84375 -16.054688 19.875 -16.609375 C 20.914062 -17.160156 22.054688 -17.4375 23.296875 -17.4375 C 25.515625 -17.4375 27.21875 -16.769531 28.40625 -15.4375 C 29.59375 -14.113281 30.1875 -12.171875 30.1875 -9.609375 L 30.1875 0 L 25.796875 0 L 25.796875 -9.203125 C 25.796875 -10.660156 25.515625 -11.773438 24.953125 -12.546875 C 24.398438 -13.328125 23.539062 -13.71875 22.375 -13.71875 C 21.1875 -13.71875 20.226562 -13.285156 19.5 -12.421875 C 18.78125 -11.554688 18.421875 -10.34375 18.421875 -8.78125 L 18.421875 0 L 14.03125 0 L 14.03125 -9.203125 C 14.03125 -10.660156 13.742188 -11.773438 13.171875 -12.546875 C 12.597656 -13.328125 11.71875 -13.71875 10.53125 -13.71875 C 9.363281 -13.71875 8.421875 -13.285156 7.703125 -12.421875 C 6.984375 -11.554688 6.625 -10.34375 6.625 -8.78125 L 6.625 0 Z M 2.234375 0 "/></g></g></g><g fill="#ffffff" fill-opacity="1"><g transform="translate(204.376149, 201.137639)"><g><path d="M 8.609375 0.40625 C 6.484375 0.40625 4.84375 -0.253906 3.6875 -1.578125 C 2.53125 -2.898438 1.953125 -4.84375 1.953125 -7.40625 L 1.953125 -17.015625 L 6.3125 -17.015625 L 6.3125 -7.828125 C 6.3125 -6.359375 6.609375 -5.234375 7.203125 -4.453125 C 7.796875 -3.679688 8.734375 -3.296875 10.015625 -3.296875 C 11.234375 -3.296875 12.234375 -3.726562 13.015625 -4.59375 C 13.804688 -5.46875 14.203125 -6.679688 14.203125 -8.234375 L 14.203125 -17.015625 L 18.59375 -17.015625 L 18.59375 0 L 14.71875 0 L 14.375 -2.875 C 13.851562 -1.875 13.09375 -1.078125 12.09375 -0.484375 C 11.101562 0.109375 9.941406 0.40625 8.609375 0.40625 Z M 8.609375 0.40625 "/></g></g></g><g fill="#ffffff" fill-opacity="1"><g transform="translate(221.977436, 201.137639)"><g><path d="M 2.234375 0 L 2.234375 -17.015625 L 6.109375 -17.015625 L 6.453125 -14.140625 C 6.972656 -15.140625 7.726562 -15.9375 8.71875 -16.53125 C 9.71875 -17.132812 10.894531 -17.4375 12.25 -17.4375 C 14.351562 -17.4375 15.988281 -16.769531 17.15625 -15.4375 C 18.320312 -14.113281 18.90625 -12.171875 18.90625 -9.609375 L 18.90625 0 L 14.515625 0 L 14.515625 -9.203125 C 14.515625 -10.660156 14.21875 -11.773438 13.625 -12.546875 C 13.03125 -13.328125 12.101562 -13.71875 10.84375 -13.71875 C 9.601562 -13.71875 8.585938 -13.285156 7.796875 -12.421875 C 7.015625 -11.554688 6.625 -10.34375 6.625 -8.78125 L 6.625 0 Z M 2.234375 0 "/></g></g></g><g fill="#ffffff" fill-opacity="1"><g transform="translate(239.578723, 201.137639)"><g><path d="M 4.59375 -19.65625 C 3.789062 -19.65625 3.132812 -19.894531 2.625 -20.375 C 2.113281 -20.863281 1.859375 -21.472656 1.859375 -22.203125 C 1.859375 -22.929688 2.113281 -23.53125 2.625 -24 C 3.132812 -24.46875 3.789062 -24.703125 4.59375 -24.703125 C 5.394531 -24.703125 6.050781 -24.46875 6.5625 -24 C 7.082031 -23.53125 7.34375 -22.929688 7.34375 -22.203125 C 7.34375 -21.472656 7.082031 -20.863281 6.5625 -20.375 C 6.050781 -19.894531 5.394531 -19.65625 4.59375 -19.65625 Z M 2.40625 0 L 2.40625 -17.015625 L 6.796875 -17.015625 L 6.796875 0 Z M 2.40625 0 "/></g></g></g><g fill="#ffffff" fill-opacity="1"><g transform="translate(245.479468, 201.137639)"><g><path d="M 9.8125 0 C 8.03125 0 6.597656 -0.429688 5.515625 -1.296875 C 4.441406 -2.171875 3.90625 -3.71875 3.90625 -5.9375 L 3.90625 -13.34375 L 1 -13.34375 L 1 -17.015625 L 3.90625 -17.015625 L 4.421875 -21.578125 L 8.296875 -21.578125 L 8.296875 -17.015625 L 12.90625 -17.015625 L 12.90625 -13.34375 L 8.296875 -13.34375 L 8.296875 -5.90625 C 8.296875 -5.082031 8.472656 -4.515625 8.828125 -4.203125 C 9.191406 -3.890625 9.804688 -3.734375 10.671875 -3.734375 L 12.796875 -3.734375 L 12.796875 0 Z M 9.8125 0 "/></g></g></g><g fill="#ffffff" fill-opacity="1"><g transform="translate(256.664328, 201.137639)"><g><path d="M 4.359375 7.546875 L 8.296875 -1.125 L 7.28125 -1.125 L 0.65625 -17.015625 L 5.421875 -17.015625 L 10.1875 -5.046875 L 15.171875 -17.015625 L 19.828125 -17.015625 L 9.03125 7.546875 Z M 4.359375 7.546875 "/></g></g></g><g fill="#ffffff" fill-opacity="1"><g transform="translate(273.888177, 201.137639)"><g><path d="M 13.203125 0.40625 C 10.785156 0.40625 8.707031 -0.109375 6.96875 -1.140625 C 5.226562 -2.179688 3.890625 -3.632812 2.953125 -5.5 C 2.015625 -7.363281 1.546875 -9.519531 1.546875 -11.96875 C 1.546875 -14.414062 2.015625 -16.578125 2.953125 -18.453125 C 3.890625 -20.335938 5.226562 -21.804688 6.96875 -22.859375 C 8.707031 -23.910156 10.785156 -24.4375 13.203125 -24.4375 C 16.085938 -24.4375 18.453125 -23.71875 20.296875 -22.28125 C 22.140625 -20.851562 23.289062 -18.847656 23.75 -16.265625 L 18.90625 -16.265625 C 18.601562 -17.566406 17.96875 -18.585938 17 -19.328125 C 16.03125 -20.078125 14.742188 -20.453125 13.140625 -20.453125 C 10.921875 -20.453125 9.179688 -19.695312 7.921875 -18.1875 C 6.660156 -16.675781 6.03125 -14.601562 6.03125 -11.96875 C 6.03125 -9.34375 6.660156 -7.28125 7.921875 -5.78125 C 9.179688 -4.28125 10.921875 -3.53125 13.140625 -3.53125 C 14.742188 -3.53125 16.03125 -3.878906 17 -4.578125 C 17.96875 -5.273438 18.601562 -6.242188 18.90625 -7.484375 L 23.75 -7.484375 C 23.289062 -5.015625 22.140625 -3.082031 20.296875 -1.6875 C 18.453125 -0.289062 16.085938 0.40625 13.203125 0.40625 Z M 13.203125 0.40625 "/></g></g></g><g fill="#ffffff" fill-opacity="1"><g transform="translate(295.915763, 201.137639)"><g><path d="M 8.09375 0.40625 C 6.632812 0.40625 5.4375 0.171875 4.5 -0.296875 C 3.5625 -0.765625 2.863281 -1.382812 2.40625 -2.15625 C 1.945312 -2.9375 1.71875 -3.796875 1.71875 -4.734375 C 1.71875 -6.316406 2.332031 -7.597656 3.5625 -8.578125 C 4.800781 -9.554688 6.65625 -10.046875 9.125 -10.046875 L 13.453125 -10.046875 L 13.453125 -10.46875 C 13.453125 -11.632812 13.117188 -12.488281 12.453125 -13.03125 C 11.785156 -13.582031 10.960938 -13.859375 9.984375 -13.859375 C 9.085938 -13.859375 8.304688 -13.644531 7.640625 -13.21875 C 6.984375 -12.800781 6.578125 -12.179688 6.421875 -11.359375 L 2.125 -11.359375 C 2.238281 -12.585938 2.65625 -13.660156 3.375 -14.578125 C 4.09375 -15.492188 5.023438 -16.195312 6.171875 -16.6875 C 7.316406 -17.1875 8.597656 -17.4375 10.015625 -17.4375 C 12.441406 -17.4375 14.351562 -16.828125 15.75 -15.609375 C 17.144531 -14.398438 17.84375 -12.6875 17.84375 -10.46875 L 17.84375 0 L 14.109375 0 L 13.6875 -2.75 C 13.1875 -1.832031 12.484375 -1.078125 11.578125 -0.484375 C 10.671875 0.109375 9.507812 0.40625 8.09375 0.40625 Z M 9.09375 -3.015625 C 10.351562 -3.015625 11.332031 -3.425781 12.03125 -4.25 C 12.726562 -5.070312 13.164062 -6.09375 13.34375 -7.3125 L 9.609375 -7.3125 C 8.441406 -7.3125 7.601562 -7.097656 7.09375 -6.671875 C 6.59375 -6.242188 6.34375 -5.722656 6.34375 -5.109375 C 6.34375 -4.453125 6.59375 -3.9375 7.09375 -3.5625 C 7.601562 -3.195312 8.269531 -3.015625 9.09375 -3.015625 Z M 9.09375 -3.015625 "/></g></g></g><g fill="#ffffff" fill-opacity="1"><g transform="translate(312.453345, 201.137639)"><g><path d="M 2.234375 0 L 2.234375 -17.015625 L 6.140625 -17.015625 L 6.546875 -13.828125 C 7.171875 -14.921875 8.015625 -15.796875 9.078125 -16.453125 C 10.140625 -17.109375 11.390625 -17.4375 12.828125 -17.4375 L 12.828125 -12.796875 L 11.59375 -12.796875 C 10.632812 -12.796875 9.773438 -12.644531 9.015625 -12.34375 C 8.265625 -12.050781 7.675781 -11.535156 7.25 -10.796875 C 6.832031 -10.066406 6.625 -9.050781 6.625 -7.75 L 6.625 0 Z M 2.234375 0 "/></g></g></g><g fill="#ffffff" fill-opacity="1"><g transform="translate(322.780378, 201.137639)"><g><path d="M 10.5 0.40625 C 8.78125 0.40625 7.257812 0.0390625 5.9375 -0.6875 C 4.613281 -1.414062 3.570312 -2.441406 2.8125 -3.765625 C 2.0625 -5.097656 1.6875 -6.632812 1.6875 -8.375 C 1.6875 -10.132812 2.054688 -11.695312 2.796875 -13.0625 C 3.535156 -14.4375 4.5625 -15.507812 5.875 -16.28125 C 7.195312 -17.050781 8.75 -17.4375 10.53125 -17.4375 C 12.195312 -17.4375 13.671875 -17.066406 14.953125 -16.328125 C 16.234375 -15.597656 17.234375 -14.597656 17.953125 -13.328125 C 18.679688 -12.054688 19.046875 -10.644531 19.046875 -9.09375 C 19.046875 -8.84375 19.039062 -8.578125 19.03125 -8.296875 C 19.019531 -8.023438 19 -7.742188 18.96875 -7.453125 L 6.03125 -7.453125 C 6.125 -6.117188 6.585938 -5.070312 7.421875 -4.3125 C 8.265625 -3.5625 9.28125 -3.1875 10.46875 -3.1875 C 11.351562 -3.1875 12.097656 -3.382812 12.703125 -3.78125 C 13.316406 -4.1875 13.769531 -4.710938 14.0625 -5.359375 L 18.53125 -5.359375 C 18.207031 -4.273438 17.671875 -3.289062 16.921875 -2.40625 C 16.179688 -1.53125 15.269531 -0.84375 14.1875 -0.34375 C 13.101562 0.15625 11.875 0.40625 10.5 0.40625 Z M 10.53125 -13.859375 C 9.457031 -13.859375 8.507812 -13.554688 7.6875 -12.953125 C 6.863281 -12.347656 6.335938 -11.425781 6.109375 -10.1875 L 14.578125 -10.1875 C 14.515625 -11.3125 14.101562 -12.203125 13.34375 -12.859375 C 12.59375 -13.523438 11.65625 -13.859375 10.53125 -13.859375 Z M 10.53125 -13.859375 "/></g></g></g><g fill="#d1ff5d" fill-opacity="1"><g transform="translate(112.756799, 222.983894)"><g><path d="M 5.046875 0.15625 C 4.160156 0.15625 3.382812 -0.046875 2.71875 -0.453125 C 2.0625 -0.859375 1.546875 -1.425781 1.171875 -2.15625 C 0.804688 -2.882812 0.625 -3.726562 0.625 -4.6875 C 0.625 -5.644531 0.8125 -6.488281 1.1875 -7.21875 C 1.5625 -7.957031 2.085938 -8.53125 2.765625 -8.9375 C 3.453125 -9.351562 4.265625 -9.5625 5.203125 -9.5625 C 6.253906 -9.5625 7.128906 -9.304688 7.828125 -8.796875 C 8.535156 -8.285156 8.992188 -7.582031 9.203125 -6.6875 L 7.90625 -6.6875 C 7.78125 -7.25 7.476562 -7.695312 7 -8.03125 C 6.53125 -8.363281 5.929688 -8.53125 5.203125 -8.53125 C 4.515625 -8.53125 3.914062 -8.375 3.40625 -8.0625 C 2.894531 -7.757812 2.492188 -7.320312 2.203125 -6.75 C 1.921875 -6.175781 1.78125 -5.488281 1.78125 -4.6875 C 1.78125 -3.894531 1.921875 -3.210938 2.203125 -2.640625 C 2.484375 -2.066406 2.867188 -1.625 3.359375 -1.3125 C 3.847656 -1 4.421875 -0.84375 5.078125 -0.84375 C 6.078125 -0.84375 6.832031 -1.132812 7.34375 -1.71875 C 7.851562 -2.3125 8.144531 -3.117188 8.21875 -4.140625 L 5.515625 -4.140625 L 5.515625 -5.03125 L 9.375 -5.03125 L 9.375 0 L 8.34375 0 L 8.25 -1.546875 C 7.90625 -0.992188 7.488281 -0.570312 7 -0.28125 C 6.507812 0.0078125 5.859375 0.15625 5.046875 0.15625 Z M 5.046875 0.15625 "/></g></g></g><g fill="#d1ff5d" fill-opacity="1"><g transform="translate(132.667336, 222.983894)"><g><path d="M 0.40625 0 L 3.875 -9.40625 L 5.0625 -9.40625 L 8.515625 0 L 7.328125 0 L 6.46875 -2.421875 L 2.453125 -2.421875 L 1.578125 0 Z M 2.796875 -3.328125 L 6.125 -3.328125 L 4.46875 -7.984375 Z M 2.796875 -3.328125 "/></g></g></g><g fill="#d1ff5d" fill-opacity="1"><g transform="translate(151.328878, 222.983894)"><g><path d="M 3.203125 0 L 3.203125 -8.484375 L 0.390625 -8.484375 L 0.390625 -9.40625 L 7.140625 -9.40625 L 7.140625 -8.484375 L 4.328125 -8.484375 L 4.328125 0 Z M 3.203125 0 "/></g></g></g><g fill="#d1ff5d" fill-opacity="1"><g transform="translate(168.593688, 222.983894)"><g><path d="M 1 0 L 1 -9.40625 L 6.8125 -9.40625 L 6.8125 -8.484375 L 2.125 -8.484375 L 2.125 -5.203125 L 6.40625 -5.203125 L 6.40625 -4.28125 L 2.125 -4.28125 L 2.125 -0.921875 L 6.8125 -0.921875 L 6.8125 0 Z M 1 0 "/></g></g></g><g fill="#d1ff5d" fill-opacity="1"><g transform="translate(185.912227, 222.983894)"><g><path d="M 2.921875 0.015625 L 0.34375 -9.40625 L 1.5625 -9.40625 L 3.59375 -1.328125 L 5.90625 -9.40625 L 7.15625 -9.40625 L 9.390625 -1.328125 L 11.453125 -9.40625 L 12.65625 -9.40625 L 10.03125 0 L 8.734375 0 L 6.484375 -7.765625 L 4.1875 0 Z M 2.921875 0.015625 "/></g></g></g><g fill="#d1ff5d" fill-opacity="1"><g transform="translate(208.64306, 222.983894)"><g><path d="M 0.40625 0 L 3.875 -9.40625 L 5.0625 -9.40625 L 8.515625 0 L 7.328125 0 L 6.46875 -2.421875 L 2.453125 -2.421875 L 1.578125 0 Z M 2.796875 -3.328125 L 6.125 -3.328125 L 4.46875 -7.984375 Z M 2.796875 -3.328125 "/></g></g></g><g fill="#d1ff5d" fill-opacity="1"><g transform="translate(227.304602, 222.983894)"><g><path d="M 3.328125 0 L 3.328125 -3.578125 L 0.265625 -9.40625 L 1.546875 -9.40625 L 3.890625 -4.65625 L 6.25 -9.40625 L 7.515625 -9.40625 L 4.46875 -3.578125 L 4.46875 0 Z M 3.328125 0 "/></g></g></g><g clip-path="url(#f5731f1712)"><path fill="#5aff7a" d="M 66.980469 159.816406 L 58.621094 159.816406 C 44.917969 159.816406 33.769531 170.96875 33.769531 184.671875 L 33.769531 226.242188 L 75.335938 226.242188 C 89.042969 226.242188 100.191406 215.089844 100.191406 201.386719 L 100.191406 193.03125 L 86.335938 193.03125 L 86.335938 201.386719 C 86.335938 207.457031 81.40625 212.386719 75.335938 212.386719 L 47.621094 212.386719 L 47.621094 184.671875 C 47.621094 178.609375 52.558594 173.671875 58.621094 173.671875 L 66.980469 173.671875 Z M 66.980469 159.816406 " fill-opacity="1" fill-rule="nonzero"/></g><g clip-path="url(#e7db771db0)"><path fill="#00bf63" d="M 97.191406 164.875 L 107.035156 164.875 L 107.035156 174.566406 L 97.191406 174.566406 L 97.191406 184.40625 L 87.5 184.40625 L 87.5 174.566406 L 77.660156 174.566406 L 77.660156 164.875 L 87.5 164.875 L 87.5 155.03125 L 97.191406 155.03125 Z M 97.191406 164.875 " fill-opacity="1" fill-rule="nonzero"/></g><g clip-path="url(#e9485eb895)"><path fill="#004aad" d="M 66.980469 159.816406 L 58.621094 159.816406 C 44.917969 159.816406 33.769531 170.96875 33.769531 184.671875 L 33.769531 226.242188 L 34.457031 226.242188 L 47.910156 212.386719 L 47.625 212.386719 L 47.625 184.671875 C 47.625 178.609375 52.558594 173.671875 58.621094 173.671875 L 66.980469 173.671875 Z M 66.980469 159.816406 " fill-opacity="1" fill-rule="nonzero"/></g><g clip-path="url(#5ae0ec64c3)"><path fill="#14edb9" d="M 81.507812 188.992188 C 81.753906 190.101562 81.886719 191.257812 81.886719 192.441406 C 81.886719 201.140625 74.832031 208.191406 66.132812 208.191406 C 57.4375 208.191406 50.382812 201.140625 50.382812 192.441406 C 50.382812 183.742188 57.4375 176.691406 66.132812 176.691406 C 69.144531 176.691406 71.960938 177.539062 74.351562 179.003906 C 71.507812 177.066406 68.070312 175.9375 64.371094 175.9375 C 54.558594 175.9375 46.605469 183.890625 46.605469 193.703125 C 46.605469 203.515625 54.558594 211.46875 64.371094 211.46875 C 74.183594 211.46875 82.136719 203.515625 82.136719 193.703125 C 82.136719 192.070312 81.917969 190.492188 81.507812 188.992188 " fill-opacity="1" fill-rule="nonzero"/></g><path fill="#5aff7a" d="M 65.675781 193.042969 C 64.847656 195.035156 65.453125 196.875 66.035156 197.988281 C 65.992188 196.703125 67.195312 194.210938 69.820312 192.128906 C 69.820312 192.128906 67.367188 194.65625 66.738281 197.085938 C 66.285156 198.816406 64.859375 200.132812 63.085938 200.363281 C 62.308594 200.460938 61.503906 200.433594 60.691406 200.265625 C 56.855469 199.453125 54.367188 195.667969 55.148438 191.824219 C 55.917969 188.035156 59.546875 185.554688 63.332031 186.179688 C 63.246094 186.160156 63.160156 186.140625 63.070312 186.121094 C 58.882812 185.28125 54.808594 187.996094 53.96875 192.183594 C 53.128906 196.371094 55.84375 200.445312 60.03125 201.28125 C 62.1875 201.714844 64.316406 201.203125 65.984375 200.035156 C 66.78125 199.476562 67.632812 199 68.507812 198.582031 C 69.878906 197.929688 71.585938 196.414062 71.808594 192.914062 C 72.027344 189.476562 73.972656 188.328125 73.972656 188.328125 C 73.972656 188.328125 67.601562 188.414062 65.675781 193.042969 " fill-opacity="1" fill-rule="nonzero"/><path fill="#5aff7a" d="M 60.550781 193.507812 C 60.648438 197.800781 64.003906 198.078125 64.003906 198.078125 C 64.78125 196.117188 62 193.003906 62 193.003906 C 63.820312 194.570312 64.613281 196.394531 64.542969 197.316406 C 64.992188 196.535156 65.484375 195.234375 64.945312 193.78125 C 63.699219 190.402344 59.132812 190.152344 59.132812 190.152344 C 59.132812 190.152344 60.492188 191.035156 60.550781 193.507812 " fill-opacity="1" fill-rule="nonzero"/><g clip-path="url(#21821883fa)"><path fill="#14edb9" d="M 81.308594 179.285156 L 81.308594 174.195312 C 81.308594 173.972656 81.132812 173.796875 80.910156 173.796875 L 74.960938 173.796875 C 74.742188 173.796875 74.5625 173.972656 74.5625 174.195312 L 74.5625 179.285156 C 74.5625 179.503906 74.386719 179.683594 74.164062 179.683594 L 69.074219 179.683594 C 68.855469 179.683594 68.675781 179.859375 68.675781 180.082031 L 68.675781 186.03125 C 68.675781 186.25 68.855469 186.429688 69.074219 186.429688 L 74.164062 186.429688 C 74.386719 186.429688 74.5625 186.605469 74.5625 186.828125 L 74.5625 191.917969 C 74.5625 192.136719 74.742188 192.316406 74.960938 192.316406 L 80.910156 192.316406 C 81.132812 192.316406 81.308594 192.136719 81.308594 191.917969 L 81.308594 186.828125 C 81.308594 186.605469 81.488281 186.429688 81.707031 186.429688 L 86.800781 186.429688 C 87.019531 186.429688 87.199219 186.25 87.199219 186.03125 L 87.199219 180.082031 C 87.199219 179.859375 87.019531 179.683594 86.800781 179.683594 L 81.707031 179.683594 C 81.488281 179.683594 81.308594 179.503906 81.308594 179.285156 " fill-opacity="1" fill-rule="nonzero"/></g><path fill="#14edb9" d="M 72.90625 201.199219 L 72.90625 199.75 C 72.90625 199.6875 72.855469 199.636719 72.792969 199.636719 L 71.097656 199.636719 C 71.035156 199.636719 70.984375 199.6875 70.984375 199.75 L 70.984375 201.199219 C 70.984375 201.261719 70.933594 201.3125 70.871094 201.3125 L 69.421875 201.3125 C 69.359375 201.3125 69.304688 201.363281 69.304688 201.425781 L 69.304688 203.125 C 69.304688 203.1875 69.359375 203.238281 69.421875 203.238281 L 70.871094 203.238281 C 70.933594 203.238281 70.984375 203.289062 70.984375 203.351562 L 70.984375 204.800781 C 70.984375 204.863281 71.035156 204.914062 71.097656 204.914062 L 72.792969 204.914062 C 72.855469 204.914062 72.90625 204.863281 72.90625 204.800781 L 72.90625 203.351562 C 72.90625 203.289062 72.957031 203.238281 73.019531 203.238281 L 74.472656 203.238281 C 74.535156 203.238281 74.585938 203.1875 74.585938 203.125 L 74.585938 201.425781 C 74.585938 201.363281 74.535156 201.3125 74.472656 201.3125 L 73.019531 201.3125 C 72.957031 201.3125 72.90625 201.261719 72.90625 201.199219 " fill-opacity="1" fill-rule="nonzero"/><path fill="#14edb9" d="M 62.214844 180.621094 L 62.214844 179.171875 C 62.214844 179.109375 62.164062 179.058594 62.101562 179.058594 L 60.40625 179.058594 C 60.34375 179.058594 60.292969 179.109375 60.292969 179.171875 L 60.292969 180.621094 C 60.292969 180.683594 60.242188 180.734375 60.179688 180.734375 L 58.730469 180.734375 C 58.664062 180.734375 58.613281 180.785156 58.613281 180.847656 L 58.613281 182.542969 C 58.613281 182.609375 58.664062 182.660156 58.730469 182.660156 L 60.179688 182.660156 C 60.242188 182.660156 60.292969 182.710938 60.292969 182.773438 L 60.292969 184.222656 C 60.292969 184.285156 60.34375 184.335938 60.40625 184.335938 L 62.101562 184.335938 C 62.164062 184.335938 62.214844 184.285156 62.214844 184.222656 L 62.214844 182.773438 C 62.214844 182.710938 62.265625 182.660156 62.328125 182.660156 L 63.78125 182.660156 C 63.84375 182.660156 63.894531 182.609375 63.894531 182.542969 L 63.894531 180.847656 C 63.894531 180.785156 63.84375 180.734375 63.78125 180.734375 L 62.328125 180.734375 C 62.265625 180.734375 62.214844 180.683594 62.214844 180.621094 " fill-opacity="1" fill-rule="nonzero"/></svg>